<?xml version="1.0" encoding="utf-8"?>
<!-- Generator: Adobe Illustrator 19.0.0, SVG Export Plug-In . SVG Version: 6.00 Build 0)  -->
<svg version="1.1" id="Layer_1" xmlns="http://www.w3.org/2000/svg" xmlns:xlink="http://www.w3.org/1999/xlink" x="0px" y="0px"
	 viewBox="0 0 380 135" style="enable-background:new 0 0 380 135;" xml:space="preserve">
<style type="text/css">
	.st0{fill:#8BC441;}
	.st1{fill:#64C6D5;}
	.st2{fill:#FDD011;}
	.st3{fill:#6953A3;}
	.st4{fill:#F47A20;}
	.st5{fill:#D83D95;}
	.st6{fill:#FFFFFF;}
	.st7{fill:#020202;}
</style>
<g>
	<g>
		<g>
			<path class="st0" d="M240,100.6c-0.3,0-0.6-0.1-0.8-0.3c-0.6-0.4-0.7-1.3-0.3-1.9c0.4-0.6,0.9-1.2,1.3-1.8
				c0.4-0.6,1.2-0.8,1.9-0.4c0.6,0.4,0.8,1.2,0.4,1.9c-0.4,0.7-0.9,1.3-1.4,1.9C240.8,100.4,240.4,100.6,240,100.6z"/>
		</g>
		<g>
			<path class="st0" d="M332.2,96.9c-0.4,0-0.7-0.2-1-0.5c-1-1.2-2.1-2.4-3-3.7c-0.4-0.6-0.3-1.4,0.3-1.9c0.6-0.4,1.4-0.3,1.9,0.3
				c0.9,1.2,1.8,2.4,2.8,3.5c0.5,0.5,0.4,1.4-0.1,1.9C332.8,96.8,332.5,96.9,332.2,96.9z M244.5,93.4c-0.2,0-0.4,0-0.6-0.2
				c-0.7-0.3-0.9-1.1-0.6-1.8c0.7-1.3,1.3-2.7,1.9-4.1c0.3-0.7,1.1-1,1.7-0.7c0.7,0.3,1,1.1,0.7,1.8c-0.6,1.5-1.3,2.9-2,4.3
				C245.5,93.1,245,93.4,244.5,93.4z M326,88c-0.5,0-0.9-0.2-1.2-0.7c-0.7-1.3-1.5-2.8-2.1-4.2c-0.3-0.7,0-1.5,0.7-1.8
				c0.7-0.3,1.5,0,1.8,0.7c0.6,1.4,1.3,2.8,2,4.1c0.4,0.6,0.1,1.5-0.5,1.8C326.4,88,326.2,88,326,88z M248.7,83.4
				c-0.1,0-0.3,0-0.4-0.1c-0.7-0.2-1.1-1-0.8-1.7c0.5-1.4,0.9-2.9,1.3-4.4c0.2-0.7,0.9-1.1,1.6-0.9c0.7,0.2,1.1,0.9,0.9,1.6
				c-0.4,1.6-0.9,3.1-1.4,4.5C249.8,83,249.3,83.4,248.7,83.4z M321.5,78.1c-0.5,0-1.1-0.3-1.3-0.9c-0.5-1.4-1-2.9-1.5-4.5
				c-0.2-0.7,0.2-1.4,0.9-1.7c0.7-0.2,1.5,0.2,1.7,0.9c0.5,1.5,0.9,3,1.4,4.4c0.2,0.7-0.1,1.5-0.8,1.7
				C321.8,78.1,321.7,78.1,321.5,78.1z M251.5,72.9c-0.1,0-0.2,0-0.3,0c-0.7-0.2-1.2-0.9-1-1.6c0.2-1,0.4-2.1,0.6-3.1
				c0.1-0.5,0.2-0.9,0.3-1.4c0.1-0.7,0.8-1.2,1.6-1.1c0.7,0.1,1.2,0.8,1.1,1.6c-0.1,0.5-0.2,0.9-0.3,1.4c-0.2,1.1-0.4,2.1-0.6,3.2
				C252.7,72.5,252.1,72.9,251.5,72.9z M318.5,67.7c-0.6,0-1.1-0.4-1.3-1c-0.4-1.5-0.7-3-1.1-4.6c-0.2-0.7,0.3-1.4,1-1.6
				c0.7-0.2,1.4,0.3,1.6,1c0.3,1.5,0.7,3,1.1,4.5c0.2,0.7-0.3,1.4-1,1.6C318.7,67.7,318.6,67.7,318.5,67.7z M253.5,62.2
				c-0.1,0-0.1,0-0.2,0c-0.7-0.1-1.2-0.8-1.1-1.5c0.2-1.4,0.4-2.8,0.7-4.2l0.1-0.4c0.1-0.7,0.8-1.2,1.5-1.1c0.7,0.1,1.2,0.8,1.1,1.5
				l-0.1,0.4c-0.2,1.4-0.4,2.8-0.7,4.2C254.7,61.8,254.1,62.2,253.5,62.2z M316,57.2c-0.6,0-1.2-0.4-1.3-1c-0.3-1.5-0.7-3-1-4.5
				c-0.2-0.7,0.3-1.4,1-1.6c0.7-0.2,1.4,0.3,1.6,1c0.3,1.5,0.7,3,1,4.5c0.2,0.7-0.3,1.4-1,1.6C316.2,57.1,316.1,57.2,316,57.2z
				 M255.2,51.5c-0.1,0-0.1,0-0.2,0c-0.7-0.1-1.2-0.8-1.1-1.5c0.3-1.5,0.5-3.1,0.8-4.6c0.1-0.7,0.8-1.2,1.6-1.1
				c0.7,0.1,1.2,0.8,1.1,1.6c-0.3,1.5-0.6,3-0.8,4.5C256.4,51.1,255.8,51.5,255.2,51.5z M313.6,46.6c-0.6,0-1.1-0.4-1.3-1
				c-0.3-1-0.5-2-0.8-3c-0.1-0.5-0.3-0.9-0.4-1.4c-0.2-0.7,0.2-1.4,0.9-1.7c0.7-0.2,1.4,0.2,1.7,0.9c0.1,0.5,0.3,1,0.4,1.5
				c0.3,1,0.5,2,0.8,3.1c0.2,0.7-0.3,1.4-1,1.6C313.8,46.6,313.7,46.6,313.6,46.6z M257.3,40.9c-0.1,0-0.2,0-0.3,0
				c-0.7-0.2-1.2-0.9-1-1.6c0.1-0.4,0.2-0.8,0.3-1.1c0.3-1.1,0.6-2.3,1-3.5c0.2-0.7,1-1.1,1.7-0.9c0.7,0.2,1.1,1,0.9,1.7
				c-0.3,1.1-0.7,2.2-0.9,3.3c-0.1,0.4-0.2,0.7-0.3,1.1C258.4,40.5,257.9,40.9,257.3,40.9z M310.4,36.2c-0.5,0-1-0.3-1.2-0.8
				c-0.6-1.4-1.2-2.8-1.8-4.2c-0.3-0.7,0-1.5,0.6-1.8c0.7-0.3,1.5,0,1.8,0.6c0.7,1.4,1.3,2.9,1.9,4.3c0.3,0.7-0.1,1.5-0.7,1.7
				C310.7,36.2,310.6,36.2,310.4,36.2z M260.7,30.6c-0.2,0-0.4,0-0.5-0.1c-0.7-0.3-1-1.1-0.7-1.8c0.7-1.5,1.4-2.9,2.2-4.3
				c0.4-0.6,1.2-0.9,1.8-0.5c0.6,0.4,0.9,1.2,0.5,1.8c-0.7,1.3-1.4,2.6-2.1,4C261.7,30.3,261.2,30.6,260.7,30.6z M305.6,26.5
				c-0.4,0-0.9-0.2-1.1-0.6c-0.8-1.3-1.7-2.6-2.6-3.7c-0.4-0.6-0.3-1.4,0.3-1.9c0.6-0.4,1.4-0.3,1.9,0.3c0.9,1.2,1.8,2.6,2.7,3.9
				c0.4,0.6,0.2,1.5-0.4,1.8C306,26.5,305.8,26.5,305.6,26.5z M266.3,21.3c-0.3,0-0.6-0.1-0.8-0.3c-0.6-0.5-0.7-1.3-0.2-1.9
				c1-1.3,2.2-2.5,3.3-3.5c0.5-0.5,1.4-0.5,1.9,0.1c0.5,0.5,0.5,1.4-0.1,1.9c-1.1,1-2.1,2-3,3.2C267.1,21.2,266.7,21.3,266.3,21.3z
				 M298.8,18.1c-0.3,0-0.7-0.1-0.9-0.4c-1.1-1-2.3-2-3.5-2.7c-0.6-0.4-0.8-1.2-0.4-1.8c0.4-0.6,1.2-0.8,1.8-0.4
				c1.3,0.9,2.6,1.9,3.8,3c0.5,0.5,0.6,1.3,0.1,1.9C299.5,17.9,299.1,18.1,298.8,18.1z M274.5,14.4c-0.5,0-0.9-0.3-1.2-0.7
				c-0.3-0.6-0.1-1.5,0.6-1.8c1.5-0.8,3-1.4,4.6-1.8c0.7-0.2,1.4,0.2,1.6,0.9c0.2,0.7-0.2,1.4-0.9,1.6c-1.4,0.4-2.7,0.9-4,1.6
				C275,14.3,274.8,14.4,274.5,14.4z M289.5,12.6c-0.1,0-0.2,0-0.4-0.1c-1.4-0.4-2.8-0.6-4.2-0.7c-0.7,0-1.3-0.6-1.3-1.4
				c0-0.7,0.6-1.3,1.4-1.3c1.7,0.1,3.3,0.3,4.9,0.8c0.7,0.2,1.1,0.9,0.9,1.6C290.7,12.2,290.1,12.6,289.5,12.6z"/>
		</g>
		<g>
			<path class="st0" d="M338.3,102.8c-0.3,0-0.6-0.1-0.9-0.3c-0.6-0.5-1.2-1-1.8-1.5c-0.5-0.5-0.6-1.3-0.1-1.9
				c0.5-0.5,1.3-0.6,1.9-0.1c0.5,0.5,1.1,1,1.7,1.5c0.6,0.5,0.6,1.3,0.2,1.9C339.1,102.7,338.7,102.8,338.3,102.8z"/>
		</g>
	</g>
	<g>
		<path class="st1" d="M29.7,122.4c-6.6,0-12.7-1.7-16.2-4.8c-2.3-2-3.5-4.5-3.4-7.2c0-6,7.3-9.5,13.4-10.7
			c3.6-0.7,7.4-0.8,11.7-0.4c9.3,0.9,18.7,4.3,27.9,7.6c1.3,0.4,2.5,0.9,3.8,1.3l-0.6,1.8l0.7,1.5c-8.4,3.9-19.5,8.6-31.5,10.4
			C33.5,122.3,31.6,122.4,29.7,122.4z M30.3,101.8c-2.2,0-4.4,0.2-6.4,0.6c-4.2,0.8-11.2,3.4-11.3,8.1c0,2,0.8,3.7,2.5,5.2
			c3.9,3.4,12.1,4.9,19.8,3.7c10.8-1.6,20.9-5.7,28.9-9.3c-0.6-0.2-1.1-0.4-1.7-0.6c-9-3.2-18.4-6.5-27.3-7.4
			C33.3,101.8,31.8,101.8,30.3,101.8z"/>
	</g>
	<g>
		<path class="st2" d="M67,111.6l-1.1-2.4c4.5-2.1,9.1-4.4,13.5-6.6c6.1-3.1,12.5-6.2,18.7-8.9c44.7-19.1,90.2-10.3,132.9,1.9
			c2.5,0.7,5.1,1.6,8.1,2.6l-0.9,2.5c-2.9-1-5.5-1.8-8-2.5C188,86,143,77.4,99.1,96.1c-6.2,2.6-12.5,5.8-18.6,8.8
			C76.1,107.2,71.5,109.5,67,111.6z"/>
	</g>
	<g>
		<g>
			<path class="st3" d="M68.6,111.6c-0.1,0-0.3,0-0.4-0.1c-0.7-0.2-1.4-0.5-2.2-0.8c-0.7-0.2-1.1-1-0.8-1.7c0.2-0.7,1-1.1,1.7-0.8
				c0.7,0.3,1.4,0.5,2.2,0.7c0.7,0.2,1.1,1,0.8,1.7C69.7,111.3,69.1,111.6,68.6,111.6z"/>
		</g>
		<g>
			<path class="st3" d="M146.2,125c-0.7,0-1.3-1-1.3-1.8c0-0.7,0.6-1.6,1.3-1.6c1.5,0,3-0.1,4.4-0.2c0.7,0,1.4,0.5,1.4,1.2
				c0,0.7-0.5,1.8-1.3,1.8C149.2,124.6,147.7,125,146.2,125L146.2,125z M140.2,125C140.2,125,140.2,125,140.2,125
				c-1.5,0-3-0.6-4.5-0.7c-0.7,0-1.3-0.9-1.3-1.6c0-0.7,0.7-1.4,1.4-1.4c1.5,0.1,3,0.1,4.4,0.1c0.7,0,1.3,1.1,1.3,1.8
				C141.5,124,140.9,125,140.2,125z M156.6,123.7c-0.7,0-1.3-0.5-1.3-1.2c-0.1-0.7,0.5-1.4,1.2-1.4c1.5-0.1,3-0.3,4.4-0.4
				c0.7-0.1,1.4,0.4,1.5,1.2c0.1,0.7-0.4,1.4-1.2,1.5c-1.5,0.2-3,0.3-4.5,0.4C156.7,123.7,156.6,123.7,156.6,123.7z M129.8,123.5
				c0,0-0.1,0-0.1,0c-1.3-0.1-2.5-0.2-3.8-0.3l-0.7-0.1c-0.7-0.1-1.3-0.7-1.2-1.5c0.1-0.7,0.7-1.3,1.5-1.2l0.7,0.1
				c1.2,0.1,2.5,0.2,3.7,0.3c0.7,0.1,1.3,0.7,1.2,1.4C131.1,123,130.5,123.5,129.8,123.5z M166.9,122.5c-0.6,0-1.2-0.5-1.3-1.1
				c-0.1-0.7,0.4-1.4,1.1-1.5c1.5-0.2,2.9-0.5,4.3-0.8c0.7-0.1,1.4,0.3,1.6,1c0.2,0.7-0.3,1.4-1,1.6c-1.5,0.3-2.9,0.6-4.4,0.8
				C167.1,122.5,167,122.5,166.9,122.5z M119.5,122.4c-0.1,0-0.1,0-0.2,0c-1.5-0.2-3-0.4-4.4-0.6c-0.7-0.1-1.2-0.8-1.1-1.5
				c0.1-0.7,0.8-1.2,1.5-1.1c1.5,0.2,2.9,0.4,4.4,0.6c0.7,0.1,1.2,0.8,1.2,1.5C120.7,121.9,120.1,122.4,119.5,122.4z M109.2,121
				c-0.1,0-0.1,0-0.2,0c-1.5-0.2-2.9-0.5-4.4-0.7c-0.7-0.1-1.2-0.8-1.1-1.5c0.1-0.7,0.8-1.2,1.5-1.1c1.5,0.3,2.9,0.5,4.4,0.7
				c0.7,0.1,1.2,0.8,1.1,1.5C110.4,120.5,109.8,121,109.2,121z M177.1,120.2c-0.6,0-1.1-0.4-1.3-1c-0.2-0.7,0.2-1.4,0.9-1.6
				c1.4-0.4,2.8-0.8,4.2-1.3c0.7-0.2,1.5,0.1,1.7,0.8c0.2,0.7-0.1,1.5-0.8,1.7c-1.4,0.5-2.9,0.9-4.3,1.4
				C177.3,120.2,177.2,120.2,177.1,120.2z M98.9,119.2c-0.1,0-0.2,0-0.3,0c-1.5-0.3-2.9-0.6-4.4-0.9c-0.7-0.1-1.2-0.9-1-1.6
				c0.1-0.7,0.9-1.2,1.6-1c1.5,0.3,2.9,0.6,4.4,0.9c0.7,0.1,1.2,0.8,1.1,1.6C100.1,118.7,99.5,119.2,98.9,119.2z M88.7,117.1
				c-0.1,0-0.2,0-0.3,0c-1.5-0.3-2.9-0.7-4.4-1c-0.7-0.2-1.2-0.9-1-1.6c0.2-0.7,0.9-1.2,1.6-1c1.4,0.3,2.9,0.7,4.3,1
				c0.7,0.2,1.2,0.9,1,1.6C89.8,116.6,89.3,117.1,88.7,117.1z M78.5,114.6c-0.1,0-0.2,0-0.3,0l-0.1,0c-1.3-0.3-2.7-0.7-4.3-1.2
				c-0.7-0.2-1.1-1-0.9-1.7c0.2-0.7,1-1.1,1.7-0.9c1.5,0.5,2.9,0.8,4.1,1.2l0.1,0c0.7,0.2,1.2,0.9,1,1.6
				C79.7,114.2,79.2,114.6,78.5,114.6z"/>
		</g>
		<g>
			<path class="st3" d="M186.9,116.7c-0.5,0-1-0.3-1.2-0.8c-0.3-0.7,0-1.5,0.7-1.8c0.7-0.3,1.4-0.6,2-0.9c0.7-0.3,1.5,0,1.8,0.6
				c0.3,0.7,0,1.5-0.6,1.8c-0.7,0.3-1.4,0.7-2.1,1C187.3,116.7,187.1,116.7,186.9,116.7z"/>
		</g>
	</g>
	<g>
		<path class="st4" d="M202.5,117.9c-5.6,0-11.1-0.7-16-2.2c-7.5-2.3-14.2-6.2-19.3-11.3c-6.2-6.2-10.2-15-10.9-24
			c-0.7-9.4,2-18.3,7.7-24.9c5.5-6.4,14.2-10.1,23.2-9.8c9,0.2,17.2,4.2,22.5,11c7.8,10,9.2,25.9,3.4,38.6
			c-4.2,9.3-13.5,15.2-21.1,19.1c10.8,2,23.7,0.7,31.9-3.5c6-3,10.8-7.1,14.9-12.5l2.1,1.6c-4.2,5.6-9.5,10.1-15.8,13.2
			C219.3,116.3,210.9,117.9,202.5,117.9z M186.6,48.3c-8,0-15.6,3.3-20.4,8.9c-10.6,12.3-9.3,33.1,3,45.3
			c4.8,4.8,11.1,8.5,18.2,10.7c0.4,0.1,0.8,0.2,1.3,0.4l-0.2-0.3c7.5-3.6,18-9.4,22.4-19c5.4-11.9,4.1-26.6-3.1-35.9
			c-4.7-6.1-12.2-9.7-20.4-10C187.1,48.3,186.8,48.3,186.6,48.3z"/>
	</g>
	<g>
		<path class="st5" d="M290.5,113.6c-4.3,0-8.5-0.3-12.6-0.8c-10.7-1.4-20.9-5.2-30.6-8.8c-3-1.1-6.1-2.2-9.1-3.3l0.9-2.5
			c3.1,1.1,6.2,2.2,9.2,3.3c9.7,3.6,19.6,7.2,30.1,8.6c15.1,2,31.5,0.2,48.8-5.4c3.1-1,6.4-2.6,9.9-4.2c8.7-4.1,18.5-8.7,27.5-5
			c3.2,1.3,5.3,3.6,5.7,6.2c0.4,2.5-0.8,4.9-3.2,6.9c-3.8,3.1-8.7,2.6-12.9,1.9c-5.4-0.9-10.8-3.5-16-7.7l0,0
			c-3.6,1.7-6.9,3.2-10.2,4.3C314.9,111.5,302.4,113.6,290.5,113.6z M340.8,101.7c4.5,3.4,9.1,5.6,13.7,6.3
			c3.9,0.6,7.9,1.1,10.8-1.3c1.7-1.4,2.5-3,2.2-4.5c-0.3-1.7-1.8-3.2-4.1-4.2C356.3,95.1,348.5,98.2,340.8,101.7z"/>
	</g>
	<g>
		<path class="st6" d="M188.2,118.7c-2.1,0-3.9-1.7-3.9-3.9c0-2.1,1.7-3.9,3.9-3.9c2.1,0,3.9,1.7,3.9,3.9
			C192,117,190.3,118.7,188.2,118.7z"/>
		<path class="st7" d="M188.2,112c1.6,0,2.9,1.3,2.9,2.9c0,1.6-1.3,2.9-2.9,2.9c-1.6,0-2.9-1.3-2.9-2.9
			C185.3,113.3,186.6,112,188.2,112 M188.2,110c-2.7,0-4.9,2.2-4.9,4.9c0,2.7,2.2,4.9,4.9,4.9c2.7,0,4.9-2.2,4.9-4.9
			C193,112.2,190.9,110,188.2,110L188.2,110z"/>
	</g>
	<g>
		<path class="st6" d="M337.6,105c-2.1,0-3.9-1.7-3.9-3.9c0-2.1,1.7-3.9,3.9-3.9s3.9,1.7,3.9,3.9C341.5,103.3,339.7,105,337.6,105z"
			/>
		<path class="st7" d="M337.6,98.3c1.6,0,2.9,1.3,2.9,2.9c0,1.6-1.3,2.9-2.9,2.9c-1.6,0-2.9-1.3-2.9-2.9
			C334.7,99.5,336,98.3,337.6,98.3 M337.6,96.3c-2.7,0-4.9,2.2-4.9,4.9s2.2,4.9,4.9,4.9s4.9-2.2,4.9-4.9
			C342.5,98.4,340.3,96.3,337.6,96.3L337.6,96.3z"/>
	</g>
	<g>
		<path class="st6" d="M239.3,102.7c-2.1,0-3.9-1.7-3.9-3.9c0-2.1,1.7-3.9,3.9-3.9c2.1,0,3.9,1.7,3.9,3.9
			C243.1,101,241.4,102.7,239.3,102.7z"/>
		<path class="st7" d="M239.3,96c1.6,0,2.9,1.3,2.9,2.9c0,1.6-1.3,2.9-2.9,2.9c-1.6,0-2.9-1.3-2.9-2.9C236.4,97.3,237.7,96,239.3,96
			 M239.3,94c-2.7,0-4.9,2.2-4.9,4.9c0,2.7,2.2,4.9,4.9,4.9s4.9-2.2,4.9-4.9C244.1,96.2,241.9,94,239.3,94L239.3,94z"/>
	</g>
	<g>
		<path class="st6" d="M67.7,113.4c-2.1,0-3.9-1.7-3.9-3.9c0-2.1,1.7-3.9,3.9-3.9s3.9,1.7,3.9,3.9C71.6,111.6,69.9,113.4,67.7,113.4
			z"/>
		<path class="st7" d="M67.7,106.7c1.6,0,2.9,1.3,2.9,2.9s-1.3,2.9-2.9,2.9c-1.6,0-2.9-1.3-2.9-2.9S66.2,106.7,67.7,106.7
			 M67.7,104.7c-2.7,0-4.9,2.2-4.9,4.9s2.2,4.9,4.9,4.9s4.9-2.2,4.9-4.9S70.4,104.7,67.7,104.7L67.7,104.7z"/>
	</g>
</g>
</svg>
