<?xml version="1.0" encoding="utf-8"?>
<!-- Generator: Adobe Illustrator 19.0.0, SVG Export Plug-In . SVG Version: 6.00 Build 0)  -->
<svg version="1.1" id="Layer_1" xmlns="http://www.w3.org/2000/svg" xmlns:xlink="http://www.w3.org/1999/xlink" x="0px" y="0px"
	 viewBox="0 0 283 57" style="enable-background:new 0 0 283 57;" xml:space="preserve">
<style type="text/css">
	.st0{fill:#3A3A3A;}
</style>
<g id="XMLID_1_">
	<g id="XMLID_17_">
		<path id="XMLID_32_" class="st0" d="M252,39.7c-0.1,0.5-0.2,1.1-0.3,1.6c-0.9,4.8-5.1,7.9-10.1,7.5c-4.4-0.3-8.2-4.2-8.3-8.7
			c-0.1-3.5-0.2-7,0-10.5c0.2-3.9,2.3-6.6,6-8c3.7-1.4,7-0.6,9.9,2.1c0.2,0.2,0.3,0.3,0.5,0.5c0,0,0,0,0.2,0.1c0-0.3,0-0.6,0-0.8
			c0-3.9,0-7.9,0-11.8c0-0.7,0.1-1.2,0.7-1.5c0.5,0,0.9,0,1.4,0C252,20,252,29.9,252,39.7z M249.9,35c0-1.7,0.1-3.4,0-5.1
			c-0.1-3.8-3.4-6.9-7.2-6.9c-3.9,0-7.2,3.1-7.3,6.9c-0.1,3.4-0.1,6.7,0,10.1c0.1,3.9,3.4,6.9,7.3,6.9c3.9,0,7.1-3.1,7.2-6.9
			C249.9,38.3,249.9,36.7,249.9,35z"/>
		<path id="XMLID_12_" class="st0" d="M175.9,10.1c0.7,0.3,0.8,0.9,0.8,1.5c0,9.6,0,19.2,0,28.9c0,1.7,0.2,3.5,1.2,5
			c0.4,0.6,1,1,1.6,1.5c0.7,0.5,0.9,1,0.6,1.5c-0.3,0.5-0.9,0.7-1.6,0.3c-1.7-1-2.8-2.5-3.3-4.5c-0.3-1.1-0.5-2.3-0.5-3.5
			c0-9.7,0-19.4,0-29.2c0-0.7,0.2-1.2,0.8-1.5C175.6,10.1,175.7,10.1,175.9,10.1z"/>
		<path id="XMLID_28_" class="st0" d="M201,34.9c0,2.2,0.1,4.4,0,6.6c-0.3,4.1-3.6,7.1-7.7,7.3c-2.6,0.2-5-0.3-7-2
			c-3.9-3.3-3.2-9.3,1.2-11.9c2.1-1.2,4.5-1.6,6.9-2.1c1.4-0.3,2.7-0.6,4.1-0.9c0.2,0,0.5-0.3,0.5-0.4c0-1.8,0.2-3.6-0.6-5.3
			c-0.9-2-2.5-2.8-4.6-3.1c-2.7-0.4-5.1,0.3-7,2.4c-0.6,0.7-1.1,0.7-1.6,0.2c-0.5-0.5-0.3-1.1,0.1-1.6c2.1-2.6,4.9-3.4,8.1-3.1
			c2.1,0.2,3.9,0.8,5.4,2.4c1.6,1.6,2.1,3.7,2.1,5.9C201.1,31.2,201.1,33,201,34.9C201.1,34.9,201,34.9,201,34.9z M199,33.9
			c-2,0.5-3.9,0.8-5.8,1.3c-1.6,0.4-3.2,0.8-4.6,1.6c-3.8,2.1-3.8,7-0.1,9.1c1.7,1,3.7,1.2,5.6,0.8c3.2-0.8,4.9-3,4.9-6.3
			c0-1.9,0-3.9,0-5.8C199,34.5,199,34.2,199,33.9z"/>
		<path id="XMLID_25_" class="st0" d="M91,34.9c0,2.2,0.1,4.4,0,6.6c-0.3,4.1-3.6,7.1-7.7,7.3c-2.9,0.2-5.6-0.4-7.7-2.7
			c-3.2-3.5-2.2-8.9,1.9-11.2c1.9-1.1,4-1.5,6.1-2c1.6-0.3,3.2-0.7,4.8-1.1c0.2,0,0.5-0.3,0.5-0.4c0-1.8,0.2-3.6-0.6-5.3
			c-0.9-2-2.5-2.8-4.6-3.1c-2.7-0.4-5.1,0.3-7,2.4c-0.6,0.7-1.1,0.7-1.6,0.2c-0.5-0.6-0.3-1.1,0.1-1.6c2.1-2.6,4.9-3.3,8.1-3.1
			c2.1,0.2,3.9,0.8,5.4,2.4c1.6,1.6,2.1,3.7,2.1,5.9C91.1,31.2,91,33.1,91,34.9C91,34.9,91,34.9,91,34.9z M88.9,33.9
			c-2.7,0.6-5.3,1.2-8,1.9c-0.8,0.2-1.7,0.6-2.4,1.1c-3.7,2.2-3.7,6.9-0.1,9.1c1.9,1.1,3.9,1.3,6,0.7c2.3-0.6,3.8-2.1,4.4-4.5
			c0,0,0-0.1,0-0.1C88.9,39.4,88.9,36.7,88.9,33.9z"/>
		<path id="XMLID_7_" class="st0" d="M116.5,38.4c0,3,0,5.9,0,8.9c0,0.4-0.3,0.8-0.5,1.1c-0.2,0.2-0.8,0.1-1,0
			c-0.3-0.3-0.5-0.7-0.5-1.1c0-3.2,0-6.4,0-9.6c0-2.4,0-4.8,0-7.3c0-3.7-2.8-6.9-6.3-7.3c-3.9-0.4-7.3,1.9-8.1,5.7
			c-0.1,0.7-0.2,1.4-0.2,2c0,5.3,0,10.6,0,16c0,0.3,0.1,0.6,0,0.8c-0.2,0.3-0.5,0.8-0.8,0.8c-0.3,0-0.7-0.3-1-0.6
			c-0.2-0.2-0.1-0.5-0.1-0.8c0-5.5,0-11,0-16.5c0-4.6,2.9-8.2,7.3-9.3c5.5-1.3,11.2,3,11.3,8.7C116.5,32.7,116.4,35.5,116.5,38.4
			C116.5,38.4,116.5,38.4,116.5,38.4z"/>
		<path id="XMLID_6_" class="st0" d="M226.5,38.4c0,2.8,0,5.7,0,8.5c0,0.2,0,0.5,0,0.7c-0.1,0.6-0.5,0.9-1,0.8
			c-0.4-0.1-0.7-0.5-1-0.8c-0.1-0.2,0-0.5,0-0.8c0-5.5,0-11,0-16.5c0-3.6-2.8-6.8-6.2-7.2c-4.6-0.6-8.4,2.7-8.4,7.4
			c0,5.4,0,10.8,0,16.3c0,0.3,0,0.6,0,0.8c-0.1,0.5-0.4,0.8-0.9,0.9c-0.5,0-0.9-0.2-1-0.7c-0.1-0.2-0.1-0.5-0.1-0.7
			c0-5.5,0-11.1,0-16.6c0-5.1,3.7-9,8.7-9.5c5.1-0.4,9.8,3.8,9.9,8.9C226.5,32.7,226.5,35.6,226.5,38.4
			C226.5,38.4,226.5,38.4,226.5,38.4z"/>
		<path id="XMLID_5_" class="st0" d="M38.1,20.8c-1.5,0-3,0-4.4,0c-0.3,0-0.6,0-0.8-0.1c-0.6-0.1-0.8-0.5-0.8-1
			c0-0.5,0.3-0.9,0.9-0.9c0.8,0,1.6,0,2.4-0.1c0.9,0,1.8,0,2.8,0c0-0.5,0-2.1,0-3.9c0-0.9,0.3-1.3,1-1.3c0.7,0,1,0.4,1,1.3
			c0,1.9,0,3.5,0,3.8c0.3,0,0.6,0,0.9,0c2.6,0,5.2,0,7.9,0c0.3,0,0.7-0.1,1,0.1c0.3,0.2,0.7,0.6,0.7,0.9c0,0.3-0.3,0.7-0.6,0.9
			c-0.2,0.2-0.6,0.1-1,0.1c-2.9,0-5.8,0-8.8,0c0,0.3,0,0.6,0,0.9c0,5.8,0,14.4,0,20.2c0,3.5,2.8,5.8,6.2,4.9c1-0.2,1.9-0.8,2.8-1.3
			c0.3-0.1,0.7-0.4,1-0.4c0.3,0.1,0.8,0.4,0.9,0.7c0.1,0.3-0.1,0.8-0.3,1c-2,1.6-4.2,2.4-6.7,1.9c-3.7-0.6-5.8-3.2-5.8-7
			c0-5.8,0-14.3,0-20.1C38.1,21.5,38.1,21.2,38.1,20.8z"/>
		<path id="XMLID_4_" class="st0" d="M157.2,20.8c-1.5,0-3,0-4.4,0c-0.3,0-0.6,0-0.8-0.1c-0.6-0.1-0.8-0.5-0.8-1
			c0-0.5,0.3-0.9,0.9-0.9c0.8,0,1.6,0,2.4-0.1c0.9,0,1.8,0,2.8,0c0-0.5,0-2.1,0-3.9c0-0.9,0.3-1.3,1-1.3c0.7,0,1,0.4,1,1.3
			c0,1.9,0,3.5,0,3.8c0.3,0,0.6,0,0.9,0c2.6,0,5.2,0,7.9,0c0.3,0,0.7-0.1,1,0.1c0.3,0.2,0.7,0.6,0.7,0.9c0,0.3-0.3,0.7-0.6,0.9
			c-0.2,0.2-0.6,0.1-1,0.1c-2.9,0-5.8,0-8.8,0c0,0.3,0,0.6,0,0.9c0,5.8,0,14.4,0,20.2c0,3.5,2.8,5.8,6.2,4.9c1-0.2,1.9-0.8,2.8-1.3
			c0.3-0.1,0.7-0.4,1-0.4c0.3,0.1,0.8,0.4,0.9,0.7c0.1,0.3-0.1,0.8-0.3,1c-2,1.6-4.2,2.4-6.7,1.9c-3.7-0.6-5.8-3.2-5.8-7
			c0-5.8,0-14.3,0-20.1C157.2,21.5,157.2,21.2,157.2,20.8z"/>
		<path id="XMLID_3_" class="st0" d="M129.4,48.9c-2.1-0.1-4.6-0.8-6.5-2.9c-0.6-0.7-0.6-1.3-0.1-1.7c0.5-0.4,1-0.3,1.6,0.4
			c2.1,2.1,4.6,2.6,7.4,1.9c1.1-0.2,2.2-0.8,3.1-1.4c2.7-2.1,2.4-6.2-0.6-8c-1.7-1-3.7-1.7-5.5-2.6c-1.5-0.7-3.1-1.3-4.3-2.5
			c-2.9-2.9-2.4-7.5,0.9-9.8c3.6-2.4,9.2-1.5,11.8,1.9c0.6,0.8,0.6,1.3,0.1,1.7c-0.6,0.5-1,0.4-1.7-0.4c-1.3-1.5-2.9-2.4-4.9-2.6
			c-1.7-0.1-3.3,0.2-4.6,1.3c-2.1,1.7-2.4,5.4,0.9,7.2c1.8,0.9,3.7,1.6,5.5,2.5c1.4,0.7,2.9,1.4,4.1,2.5c3.1,2.6,3.2,8.8-2,11.4
			C133.2,48.6,131.7,48.9,129.4,48.9z"/>
		<path id="XMLID_15_" class="st0" d="M55.6,38.4c0-2.7,0-5.4,0-8.1c0-2.1,0.5-4.1,1.7-5.9c2.1-3.2,6.2-4.3,9.9-2.7
			c0.9,0.4,1.7,1,2.5,1.6c0.5,0.4,0.6,0.9,0.2,1.4c-0.4,0.5-1,0.5-1.5,0.1c-1.1-0.9-2.3-1.5-3.7-1.6c-3.8-0.4-6.2,1.8-6.8,5.1
			c-0.2,1-0.3,2-0.3,3c0,5.2,0,10.4,0,15.7c0,0.3,0,0.6,0,0.8c-0.1,0.5-0.4,0.9-0.9,0.8c-0.4,0-0.7-0.4-1-0.7
			c-0.1-0.2-0.1-0.5-0.1-0.8C55.6,44.1,55.6,41.3,55.6,38.4L55.6,38.4z"/>
		<path id="XMLID_16_" class="st0" d="M144.9,35c0-3.9,0-7.8,0-11.8c0-0.3,0-0.7,0.1-1c0.1-0.5,0.4-0.8,0.9-0.7
			c0.4,0.1,0.7,0.4,1,0.7c0.1,0.2,0.1,0.5,0.1,0.8c0,8,0,15.9,0,23.9c0,0.3,0,0.7-0.1,0.9c-0.2,0.3-0.6,0.6-0.8,0.6
			c-0.3,0-0.7-0.3-0.9-0.6c-0.2-0.2-0.1-0.6-0.1-1C144.9,42.9,144.9,39,144.9,35z"/>
	</g>
</g>
<path id="XMLID_18_" class="st0" d="M145.7,6.6c1.3,0,2.4,1.1,2.4,2.4c0,1.3-1.1,2.4-2.4,2.4c-1.3,0-2.4-1.1-2.4-2.4
	C143.3,7.6,144.4,6.6,145.7,6.6 M145.7,4.9c-2.2,0-4.1,1.8-4.1,4.1c0,2.2,1.8,4.1,4.1,4.1c2.2,0,4.1-1.8,4.1-4.1
	C149.8,6.7,148,4.9,145.7,4.9L145.7,4.9z"/>
</svg>
